<?xml version="1.0" encoding="utf-8"?>
<!-- Generator: Adobe Illustrator 22.0.1, SVG Export Plug-In . SVG Version: 6.00 Build 0)  -->
<svg version="1.1" id="Layer_1" xmlns="http://www.w3.org/2000/svg" xmlns:xlink="http://www.w3.org/1999/xlink" x="0px" y="0px"
	 viewBox="0 0 283.5 283.5" style="enable-background:new 0 0 283.5 283.5;" xml:space="preserve">
<style type="text/css">
	.st0{fill:#2D8287;}
	.st1{fill:#FFFFFF;}
	.st2{fill:#3AB5BC;}
	.st3{fill:#C0DAF2;}
</style>
<path class="st0" d="M216.6,137.4c-2.4-0.9-4.9-1.7-7.4-2.3V42.7h23.7c2.6,0,4.7-2.1,4.7-4.7V19.1c0-10.4-8.5-18.9-18.9-18.9H38.9
	C28.5,0.2,20,8.6,20,19.1v255.5c0,2.6,2.1,4.7,4.7,4.7h139.5c39.2,14.5,82.7-5.5,97.1-44.7C275.8,195.4,255.8,151.9,216.6,137.4z"/>
<path class="st1" d="M189.8,274.5c-36.6,0-66.2-29.7-66.2-66.2s29.7-66.2,66.2-66.2c36.6,0,66.2,29.7,66.2,66.2
	C256.1,244.9,226.4,274.5,189.8,274.5z"/>
<path class="st2" d="M29,269.8V19.1c0-5.2,4.2-9.5,9.5-9.5h163.5c-1.7,2.9-2.6,6.1-2.6,9.5v114.2c-41.4-5.3-79.3,24-84.5,65.4
	c-3.5,27.6,8.4,55,31.1,71.1H29z"/>
<g>
	<path class="st0" d="M221.3,160.7c-26.3-17.1-61.4-9.7-78.5,16.6c-6,9.2-9.2,20-9.2,31c0,11,3.2,21.8,9.2,31l7.9-5.2
		c-14.2-21.9-8-51.2,13.9-65.5c21.9-14.2,51.2-8,65.5,13.9c14.2,21.9,8,51.2-13.9,65.4c-15.7,10.2-35.9,10.2-51.6,0l-5.2,7.9
		c26.3,17.1,61.4,9.7,78.5-16.6C255,213,247.6,177.8,221.3,160.7z"/>
</g>
<g>
	<path class="st0" d="M213,193.1l-32.1,32.1L170,214.4l-6.7,6.7l14.2,14.2c0.9,0.9,2.1,1.4,3.3,1.4s2.5-0.5,3.3-1.4l35.5-35.5
		L213,193.1z"/>
</g>
<g>
	<rect x="43.7" y="161" class="st0" width="71" height="9.5"/>
</g>
<g>
	<rect x="72" y="142.1" class="st0" width="52" height="9.5"/>
</g>
<g>
	<rect x="43.7" y="118.4" class="st0" width="99.3" height="9.5"/>
</g>
<g>
	<rect x="72" y="99.5" class="st0" width="113.5" height="9.5"/>
</g>
<g>
	<rect x="43.7" y="203.6" class="st0" width="61.5" height="9.5"/>
</g>
<g>
	<rect x="72" y="184.7" class="st0" width="33.1" height="9.5"/>
</g>
<g>
	<rect x="43.7" y="246.2" class="st0" width="71" height="9.5"/>
</g>
<g>
	<rect x="72" y="227.2" class="st0" width="33.1" height="9.5"/>
</g>
<g>
	<path class="st0" d="M132.9,58.3c-1.1-3.5-3.6-6.4-6.9-8l-9.2-4.6c-2-1-2.8-3.4-1.8-5.4c0.7-1.4,2.1-2.2,3.6-2.2h1.4
		c2.2,0,4,1.8,4,4v0.7h9.5V42c0-5.9-3.9-11.1-9.5-12.8v-5.4h-9.5v5.4c-7.1,2.2-11.1,9.7-8.9,16.8c1.1,3.5,3.6,6.4,6.9,8l9.2,4.6
		c2,1,2.8,3.4,1.8,5.4c-0.7,1.4-2.1,2.2-3.6,2.2h-1.4c-2.2,0-4-1.8-4-4v-0.7h-9.5v0.7c0,5.9,3.9,11.1,9.5,12.8v5.4h9.5v-5.4
		C131.2,73,135.1,65.4,132.9,58.3z"/>
</g>
<path class="st3" d="M209.2,19.1c0-5.2,4.2-9.5,9.5-9.5c5.2,0,9.5,4.2,9.5,9.5v14.2h-18.9V19.1z"/>
<g>
	<rect x="53.1" y="99.5" class="st0" width="9.5" height="9.5"/>
</g>
<g>
	<rect x="53.1" y="142.1" class="st0" width="9.5" height="9.5"/>
</g>
<g>
	<rect x="53.1" y="184.7" class="st0" width="9.5" height="9.5"/>
</g>
<g>
	<rect x="53.1" y="227.2" class="st0" width="9.5" height="9.5"/>
</g>
</svg>
