<?xml version="1.0" encoding="utf-8"?>
<!-- Generator: Adobe Illustrator 22.0.1, SVG Export Plug-In . SVG Version: 6.00 Build 0)  -->
<svg version="1.1" id="Layer_1" xmlns="http://www.w3.org/2000/svg" xmlns:xlink="http://www.w3.org/1999/xlink" x="0px" y="0px"
	 viewBox="0 0 283.5 283.5" style="enable-background:new 0 0 283.5 283.5;" xml:space="preserve">
<style type="text/css">
	.st0{fill:#85CACE;}
	.st1{fill:#2D8287;}
</style>
<path class="st0" d="M153.3,97.2c0,0-11.1,16.7-10.4,18.3s16,35.5,16,35.5L170,156l-20.7,31.6l-11.8,37.9l26,36.9l16.8,10.7l7.9,9.4
	l91.2,0.9L250.8,246l-28.9-26.6l4.4-13.3l-3.3-42.8l-36.2-36.8L153.3,97.2z"/>
<path class="st1" d="M125.9,228.4H71c-7.8,0-14.1-6.3-14.1-14.1v-15.4c1.2,0.3,2.5,0.4,3.8,0.4c0.6,0,1.2,0,1.8-0.1
	c1-0.1,1.9-0.3,2.8-0.5v15.6c0,3.2,2.6,5.7,5.7,5.7h53.8c2.3,0,4.2-1.9,4.2-4.2c0-2.3-1.9-4.2-4.2-4.2H73.7v-18.4
	c0,0,0.1-0.1,0.1-0.1c5.5-6.8,4.8-16.6-1.3-22.6c2.7-1,5.2-2.7,7.1-5.1c5.5-6.8,4.8-16.6-1.3-22.6c2.7-1,5.2-2.7,7.1-5.1
	c2.8-3.5,4.1-7.9,3.7-12.3c-0.5-4.5-2.6-8.5-6.1-11.3l-9.2-7.4V24.3h18.6l0.1,0.4c1.4,4.4,5.4,7.4,10.1,7.4h32.4
	c4.6,0,8.7-3,10.1-7.4l0.1-0.4h16.7v58.2c0,2.3,1.9,4.2,4.2,4.2c2.3,0,4.2-1.9,4.2-4.2V21.7c0-3.2-2.6-5.7-5.7-5.7h-20.4
	c-3,0-5.6,1.9-6.5,4.8l-0.5,1.5c-0.3,0.9-1.1,1.5-2.1,1.5h-32.4c-0.9,0-1.8-0.6-2.1-1.5l-0.5-1.5c-0.9-2.9-3.5-4.8-6.5-4.8H71
	c-3.2,0-5.7,2.6-5.7,5.7v78.1c-2.5-1.8-5.4-3-8.4-3.2V53.9c0-2.3-1.9-4.2-4.2-4.2c-2.3,0-4.2,1.9-4.2,4.1c-3.1-1.8-6.6-2.6-10.3-2.2
	c-4.5,0.5-8.5,2.6-11.3,6.1c-2.8,3.5-4.1,7.9-3.7,12.3c0.5,4.5,2.6,8.5,6.1,11.3l19.1,15.5v1c-2.4,1.1-4.6,2.7-6.3,4.8
	c-2.8,3.5-4.1,7.9-3.7,12.3c0.4,4,2.2,7.6,5,10.3c-2.8,1-5.2,2.8-7.1,5.1c-5.5,6.8-4.8,16.7,1.4,22.6c-2.7,1-5.2,2.7-7.1,5.1
	c-2.8,3.5-4.1,7.9-3.7,12.3c0.5,4.5,2.6,8.5,6.1,11.3l15.4,12.5v20.1c0,12.4,10.1,22.5,22.5,22.5h54.9c2.3,0,4.2-1.9,4.2-4.2
	C130.1,230.3,128.2,228.4,125.9,228.4L125.9,228.4z"/>
<path class="st0" d="M34.7,74.8c-1.7-1.4-2.8-3.4-3.1-5.7c-0.2-2.2,0.4-4.4,1.8-6.2c1.4-1.7,3.4-2.8,5.7-3.1
	c2.2-0.2,4.4,0.4,6.2,1.8l3.2,2.6V86L34.7,74.8z"/>
<path class="st0" d="M48.7,107.9c1.4-1.7,3.4-2.8,5.7-3.1c0.3,0,0.6,0,0.9,0c1.9,0,3.8,0.7,5.3,1.9l17,13.8c1.7,1.4,2.8,3.4,3.1,5.7
	c0.2,2.2-0.4,4.4-1.8,6.2c-2.9,3.6-8.2,4.1-11.8,1.2l-17-13.8c-1.7-1.4-2.8-3.4-3.1-5.7C46.7,111.9,47.3,109.7,48.7,107.9
	L48.7,107.9z"/>
<path class="st0" d="M43,135.7c1.4-1.7,3.4-2.8,5.7-3.1c2.1-0.2,4.2,0.4,5.9,1.7l7.1,5.8c0.1,0.1,0.2,0.1,0.2,0.2l9.9,8
	c3.6,2.9,4.1,8.2,1.2,11.8c-2.9,3.6-8.2,4.1-11.8,1.2l-17-13.8C40.6,144.6,40.1,139.3,43,135.7z"/>
<path class="st0" d="M35.4,169.6c-0.2-2.2,0.4-4.4,1.8-6.2c1.7-2,4.1-3.1,6.5-3.1c1.8,0,3.5,0.6,5,1.7l7.1,5.8
	c0.1,0.1,0.2,0.1,0.3,0.2l9.9,8c3.6,2.9,4.1,8.2,1.2,11.8c-1.4,1.7-3.4,2.8-5.7,3.1c-2.2,0.2-4.4-0.4-6.2-1.8l-17-13.8
	C36.7,173.8,35.6,171.8,35.4,169.6z"/>
<path class="st1" d="M52.7,40.2c2.3,0,4.2-1.9,4.2-4.2V21.7c0-7.8,6.3-14.1,14.1-14.1h93.3c7.8,0,14.1,6.3,14.1,14.1V99
	c0,2.3,1.9,4.2,4.2,4.2c2.3,0,4.2-1.9,4.2-4.2V21.7c0-12.4-10.1-22.5-22.5-22.5H71c-12.4,0-22.5,10.1-22.5,22.5V36
	C48.5,38.3,50.4,40.2,52.7,40.2L52.7,40.2z"/>
<path class="st1" d="M282.5,276.6l-28.6-33.6c-1.5-1.8-4.1-2-5.9-0.5c-1.8,1.5-2,4.1-0.5,5.9l28.6,33.6c0.8,1,2,1.5,3.2,1.5
	c1,0,1.9-0.3,2.7-1C283.7,281,284,278.3,282.5,276.6L282.5,276.6z"/>
<path class="st1" d="M179.8,264.9c-0.6-0.9-1.6-1.4-2.7-1.6c-14.6-2.4-26.4-13.7-29.3-28.1l-1.5-7.5c-1.7-8.5-0.3-17.4,4-24.9
	l20.7-36.4c2.7-4.7,2.3-10.6-1.1-14.9l-19.4-24.9c-5.7-7.3-5.4-17.6,0.7-24.6l1-1.2c0.6-0.6,1.2-0.7,1.6-0.8c0.4,0,1.1,0.1,1.6,0.7
	l18.5,19.7c1.6,1.7,4.2,1.8,5.9,0.2c1.7-1.6,1.8-4.2,0.2-5.9l-18.5-19.7c-2-2.2-4.9-3.4-7.9-3.3c-3,0.1-5.8,1.4-7.8,3.6l-1,1.2
	c-8.7,10-9.1,24.8-1,35.3l19.4,24.9c1.3,1.6,1.4,3.8,0.4,5.6L143,198.6c-5.3,9.3-7,20.2-4.9,30.7l1.5,7.5
	c3.6,17.3,17.3,30.9,34.5,34.4l8.1,10.5c0.8,1.1,2.1,1.6,3.3,1.6c0.9,0,1.8-0.3,2.5-0.9c1.8-1.4,2.2-4,0.8-5.9L179.8,264.9z"/>
<path class="st1" d="M231.4,216.5c-0.9-1.1-1.4-2.4-1.4-3.8v-21.6c0-15.1-5.7-29.5-16.1-40.5l-21.6-22.9c-1.6-1.7-4.2-1.8-5.9-0.2
	c-1.7,1.6-1.8,4.2-0.2,5.9l21.6,22.9c8.9,9.4,13.8,21.8,13.8,34.7v21.6c0,3.4,1.2,6.7,3.4,9.3l10.8,12.7c0.8,1,2,1.5,3.2,1.5
	c1,0,1.9-0.3,2.7-1c1.8-1.5,2-4.1,0.5-5.9L231.4,216.5z"/>
<path class="st1" d="M118.6,44.8c-10.7,0-19.5,8.7-19.5,19.5c0,10.7,8.7,19.5,19.5,19.5c3.3,0,6.4-0.8,9.1-2.3l6.4,6.4
	c0.8,0.8,1.9,1.2,3,1.2c1.1,0,2.1-0.4,3-1.2c1.6-1.6,1.6-4.3,0-5.9l-6-6c2.5-3.3,4-7.4,4-11.8C138.1,53.6,129.3,44.8,118.6,44.8
	L118.6,44.8z M107.5,64.3c0-6.1,5-11.1,11.1-11.1s11.1,5,11.1,11.1c0,6.1-5,11.1-11.1,11.1C112.5,75.4,107.5,70.5,107.5,64.3z"/>
<path class="st1" d="M129.4,187.8H96.6c-0.7,0-1.2-0.6-1.2-1.2v-17.9c0-0.7,0.6-1.2,1.2-1.2h42.1c2.3,0,4.2-1.9,4.2-4.2
	c0-2.3-1.9-4.2-4.2-4.2H96.6c-5.3,0-9.6,4.3-9.6,9.6v17.9c0,5.3,4.3,9.6,9.6,9.6h32.8c2.3,0,4.2-1.9,4.2-4.2
	C133.6,189.7,131.7,187.8,129.4,187.8L129.4,187.8z"/>
</svg>
