<?xml version="1.0" encoding="utf-8"?>
<!-- Generator: Adobe Illustrator 22.0.1, SVG Export Plug-In . SVG Version: 6.00 Build 0)  -->
<svg version="1.1" id="Layer_1" xmlns="http://www.w3.org/2000/svg" xmlns:xlink="http://www.w3.org/1999/xlink" x="0px" y="0px"
	 viewBox="0 0 283.5 283.5" style="enable-background:new 0 0 283.5 283.5;" xml:space="preserve">
<style type="text/css">
	.st0{fill:#2C80C3;}
	.st1{fill:#FFFFFF;}
	.st2{fill:#85CACE;}
	.st3{fill:#2D8287;}
</style>
<path class="st0" d="M251.8,64h-35.6V42.8c0-17.8-14.5-32.2-32.2-32.2H99.5c-17.8,0-32.2,14.5-32.2,32.2V64H31.7
	C13.9,64-0.6,78.4-0.6,96.2v144.5c0,17.8,14.5,32.2,32.2,32.2h220.1c17.8,0,32.2-14.5,32.2-32.2V96.2C284,78.4,269.6,64,251.8,64z"
	/>
<path class="st1" d="M99.5,21.7H184c9.7,0,17.9,6.6,20.4,15.6H79.1C81.6,28.3,89.8,21.7,99.5,21.7z"/>
<path class="st2" d="M10.6,96.2c0-11.6,9.5-21.1,21.1-21.1h85.1c3.1,0,5.6-2.5,5.6-5.6s-2.5-5.6-5.6-5.6H78.4V48.4h126.7V64h-38.3
	c-3.1,0-5.6,2.5-5.6,5.6s2.5,5.6,5.6,5.6h85c11.6,0,21.1,9.5,21.1,21.1v17.7c0,26.3-21.4,47.6-47.6,47.6h-56.8v-11.8
	c0-7-5.7-12.7-12.7-12.7h-28c-7,0-12.7,5.7-12.7,12.7v11.8H58.2c-26.3,0-47.6-21.4-47.6-47.6C10.6,113.9,10.6,96.2,10.6,96.2z"/>
<path class="st1" d="M126.2,172.7h31.1v8c0,8.6-7,15.6-15.6,15.6c-8.6,0-15.6-7-15.6-15.6L126.2,172.7L126.2,172.7z"/>
<path class="st1" d="M126.2,161.6v-11.8c0-0.8,0.7-1.5,1.5-1.5h28c0.9,0,1.5,0.7,1.5,1.5v11.8H126.2z"/>
<path class="st2" d="M272.9,240.7c0,11.6-9.5,21.1-21.1,21.1H31.7c-11.6,0-21.1-9.5-21.1-21.1v-92.4c10.7,14.8,28.1,24.4,47.6,24.4
	h56.9v8c0,14.7,12,26.7,26.7,26.7c14.7,0,26.7-12,26.7-26.7v-8h56.8c19.6,0,37-9.6,47.6-24.4L272.9,240.7L272.9,240.7z"/>
<path id="XMLID_148_" class="st3" d="M141.8,75.1c1.5,0,2.9-0.6,3.9-1.6c1-1,1.6-2.5,1.6-3.9s-0.6-2.9-1.6-3.9c-1-1-2.5-1.6-3.9-1.6
	s-2.9,0.6-3.9,1.6c-1,1-1.6,2.5-1.6,3.9s0.6,2.9,1.6,3.9C138.9,74.5,140.3,75.1,141.8,75.1z"/>
</svg>
