<?xml version="1.0" encoding="utf-8"?>
<!-- Generator: Adobe Illustrator 22.0.1, SVG Export Plug-In . SVG Version: 6.00 Build 0)  -->
<svg version="1.1" id="Layer_1" xmlns="http://www.w3.org/2000/svg" xmlns:xlink="http://www.w3.org/1999/xlink" x="0px" y="0px"
	 viewBox="0 0 283.5 283.5" style="enable-background:new 0 0 283.5 283.5;" xml:space="preserve">
<style type="text/css">
	.st0{fill:#3EC3CB;}
	.st1{fill:#2D8287;}
</style>
<path class="st0" d="M68.1,168.8l-28.4-5.1c0,0-30.8-1.9-33.7-26.8s3.3-36.4,3.3-36.4L19,75.4l8.6-17.2l33-16.2h18.7l16.7-23.6
	l39.1-12c0,0,23.7,6.9,29.6,6.5c5.9-0.5,15.2,12.5,16.6,12c1.4-0.5,30.1-1.8,30.1-1.8l6.4,13.1l9.8,18.7l15.4,17.8l10.1,14.9
	l18,19.6l7.4,27.3l-9.7,17.1c0,0-18.8,14.5-18.5,17.2c0.3,2.7-30.7,2.7-30.7,2.7L68.1,168.8z"/>
<path class="st1" d="M27.6,95.9h9.1C36.7,78.2,50.8,64,68.6,64v-9.1C45.8,54.9,27.6,73.2,27.6,95.9z"/>
<path class="st1" d="M68.6,91.4v45.6h145.8V91.4H68.6z M205.3,127.8H77.7v-27.3h127.6V127.8L205.3,127.8z"/>
<rect x="68.6" y="146.1" class="st1" width="145.8" height="45.6"/>
<polygon class="st0" points="205.3,182.5 77.7,182.5 77.7,155.2 205.3,155.2 "/>
<path class="st1" d="M259.1,88.2c-2.7-15-12.8-27.8-26.4-33.7c0-23.2-23.7-48.8-56-37.4C164.3,6.6,148.3,0.7,132.4,0.7
	c-25.5,0-48.8,14.1-60.6,36.5C23.5,34.9,6.6,80.4,9.4,100.5c-5.9,7.7-9.1,17.8-9.1,27.3c0,25.1,20.5,45.6,45.6,45.6H64v-9.1H45.8
	c-20,0-36.5-16.4-36.5-36.4c0-15,9.6-24.6,9.6-24.6c-4.6-30.1,20.5-62,58.3-57c0,0,14.6-36.9,55.1-36.9c26.9,0,42.8,18.2,42.8,18.2
	c28.7-15,52.4,10,48.3,32.8c12.8,3.6,26.9,15,27.8,33.7c0,0,22.8,9.1,22.8,33.7c0,20-16.4,36.4-36.4,36.4h-18.2v9.1h18.2
	c25.1,0,45.6-20.5,45.6-45.6C282.7,111,273.6,95.9,259.1,88.2z"/>
<polygon class="st1" points="155.2,264.5 155.2,255.4 146.1,255.4 146.1,246.3 214.4,246.3 214.4,200.7 68.6,200.7 68.6,246.3 
	136.9,246.3 136.9,255.4 127.8,255.4 127.8,264.5 50.4,264.5 50.4,273.6 127.8,273.6 127.8,282.7 155.2,282.7 155.2,273.6 
	232.6,273.6 232.6,264.5 "/>
<rect x="77.7" y="209.8" class="st0" width="127.6" height="27.3"/>
<rect x="136.9" y="264.5" class="st1" width="9.1" height="9.1"/>
<rect x="86.8" y="109.6" class="st1" width="9.1" height="9.1"/>
<rect x="105.1" y="109.6" class="st1" width="9.1" height="9.1"/>
<rect x="123.3" y="109.6" class="st1" width="9.1" height="9.1"/>
<rect x="146.1" y="109.6" class="st1" width="50.1" height="9.1"/>
<rect x="86.8" y="164.3" class="st1" width="9.1" height="9.1"/>
<rect x="105.1" y="164.3" class="st1" width="9.1" height="9.1"/>
<rect x="123.3" y="164.3" class="st1" width="9.1" height="9.1"/>
<rect x="146.1" y="164.3" class="st1" width="50.1" height="9.1"/>
<rect x="86.8" y="219" class="st1" width="9.1" height="9.1"/>
<rect x="105.1" y="219" class="st1" width="9.1" height="9.1"/>
<rect x="123.3" y="219" class="st1" width="9.1" height="9.1"/>
<rect x="146.1" y="219" class="st1" width="50.1" height="9.1"/>
</svg>
