<?xml version="1.0" encoding="utf-8"?>
<!-- Generator: Adobe Illustrator 22.0.1, SVG Export Plug-In . SVG Version: 6.00 Build 0)  -->
<svg version="1.1" id="Layer_1" xmlns="http://www.w3.org/2000/svg" xmlns:xlink="http://www.w3.org/1999/xlink" x="0px" y="0px"
	 viewBox="0 0 283.5 283.5" style="enable-background:new 0 0 283.5 283.5;" xml:space="preserve">
<style type="text/css">
	.st0{fill:#2D8287;}
	.st1{fill:#FFFFFF;}
	.st2{fill:#2C80C3;}
	.st3{fill:#0D484C;}
	.st4{fill:#3AB5BC;}
</style>
<path class="st0" d="M246,132.5h-31.5v-108C214.5,12.1,204.4,2,192,2H93C80.6,2,70.5,12.1,70.5,24.5v108H39
	c-12.4,0-22.5,10.1-22.5,22.5v27c0,12.4,10.1,22.5,22.5,22.5h31.5v54c0,12.4,10.1,22.5,22.5,22.5h99c12.4,0,22.5-10.1,22.5-22.5v-54
	H246c12.4,0,22.5-10.1,22.5-22.5v-27C268.5,142.6,258.4,132.5,246,132.5z"/>
<path class="st1" d="M258.9,182c0,7.5-6,13.5-13.5,13.5h-207c-7.5,0-13.5-6-13.5-13.5v-27c0-7.5,6-13.5,13.5-13.5h207
	c7.5,0,13.5,6,13.5,13.5V182z"/>
<path class="st2" d="M93.6,263h31.5c2.5,0,4.5-2,4.5-4.5s-2-4.5-4.5-4.5H93.6c-2.5,0-4.5,2-4.5,4.5S91.1,263,93.6,263z"/>
<path class="st2" d="M138,263h4.5c2.5,0,4.5-2,4.5-4.5s-2-4.5-4.5-4.5H138c-2.5,0-4.5,2-4.5,4.5S135.5,263,138,263z"/>
<path class="st3" d="M48.6,159.5c2.5,0,4.5-2,4.5-4.5s-2-4.5-4.5-4.5h-9c-2.5,0-4.5,2-4.5,4.5v13.5c0,2.5,2,4.5,4.5,4.5h4.5v4.5
	h-4.5c-2.5,0-4.5,2-4.5,4.5c0,2.5,2,4.5,4.5,4.5h9c2.5,0,4.5-2,4.5-4.5v-13.5c0-2.5-2-4.5-4.5-4.5h-4.5v-4.5H48.6z"/>
<path class="st3" d="M129.6,159.5c2.5,0,4.5-2,4.5-4.5s-2-4.5-4.5-4.5h-9c-2.5,0-4.5,2-4.5,4.5v13.5c0,2.5,2,4.5,4.5,4.5h4.5v4.5
	h-4.5c-2.5,0-4.5,2-4.5,4.5c0,2.5,2,4.5,4.5,4.5h9c2.5,0,4.5-2,4.5-4.5v-13.5c0-2.5-2-4.5-4.5-4.5h-4.5v-4.5H129.6z"/>
<path class="st3" d="M75.6,150.5c-2.5,0-4.5,2-4.5,4.5v22.5h-4.5V155c0-2.5-2-4.5-4.5-4.5s-4.5,2-4.5,4.5v27c0,2.5,2,4.5,4.5,4.5
	h13.5c2.5,0,4.5-2,4.5-4.5v-27C80.1,152.5,78,150.5,75.6,150.5z"/>
<path class="st3" d="M152.1,159.5c2.5,0,4.5-2,4.5-4.5s-2-4.5-4.5-4.5h-9c-2.5,0-4.5,2-4.5,4.5v27c0,2.5,2,4.5,4.5,4.5h9
	c2.5,0,4.5-2,4.5-4.5c0-2.5-2-4.5-4.5-4.5h-4.5v-18H152.1z"/>
<path class="st3" d="M246.6,159.5c2.5,0,4.5-2,4.5-4.5s-2-4.5-4.5-4.5h-9c-2.5,0-4.5,2-4.5,4.5v27c0,2.5,2,4.5,4.5,4.5h9
	c2.5,0,4.5-2,4.5-4.5c0-2.5-2-4.5-4.5-4.5h-4.5V173c0.3,0,0.6,0,0.9-0.1c0.3-0.1,0.6-0.1,0.8-0.3c0.3-0.1,0.5-0.3,0.8-0.4
	c0.5-0.3,0.9-0.7,1.2-1.2c0.2-0.2,0.3-0.5,0.4-0.8c0.1-0.3,0.2-0.6,0.3-0.8c0.1-0.6,0.1-1.2,0-1.8c-0.1-0.3-0.1-0.6-0.3-0.8
	c-0.1-0.3-0.3-0.5-0.4-0.8c-0.3-0.5-0.7-0.9-1.2-1.2c-0.2-0.2-0.5-0.3-0.8-0.4c-0.5-0.2-1.1-0.3-1.7-0.3v-4.5L246.6,159.5
	L246.6,159.5z"/>
<path class="st3" d="M192.6,150.5c-2.5,0-4.5,2-4.5,4.5v27c0,2.5,2,4.5,4.5,4.5s4.5-2,4.5-4.5v-27
	C197.1,152.5,195,150.5,192.6,150.5z"/>
<polygon class="st1" points="164.3,11 162,20 124.1,20 121.8,11 "/>
<path class="st4" d="M80.1,24.5c0-7.5,6-13.5,13.5-13.5h19l3.7,14.6c0.5,2,2.3,3.4,4.4,3.4h45c2.1,0,3.9-1.4,4.4-3.4l3.7-14.6h19
	c7.5,0,13.5,6,13.5,13.5v108h-126L80.1,24.5L80.1,24.5z"/>
<path class="st4" d="M206.1,258.5c0,7.5-6,13.5-13.5,13.5h-99c-7.5,0-13.5-6-13.5-13.5v-54h126V258.5z"/>
<path class="st3" d="M107.1,164v-9c0-2.5-2-4.5-4.5-4.5H89.1c-2.5,0-4.5,2-4.5,4.5v27c0,2.5,2,4.5,4.5,4.5h18c2.5,0,4.5-2,4.5-4.5
	v-13.5C111.6,166,109.5,164,107.1,164z M93.6,159.5h4.5v4.5h-4.5V159.5z M102.6,177.5h-9V173h9V177.5z"/>
<path class="st3" d="M183.6,168.5V155c0-2.5-2-4.5-4.5-4.5h-13.5c-2.5,0-4.5,2-4.5,4.5v27c0,2.5,2,4.5,4.5,4.5c2.5,0,4.5-2,4.5-4.5
	v-2.6l5.8,5.8c1.8,1.8,4.6,1.8,6.4,0c1.8-1.8,1.8-4.6,0-6.4l-5.8-5.8h2.6C181.5,173,183.6,171,183.6,168.5z M174.6,164h-4.5v-4.5
	h4.5V164z"/>
<path class="st3" d="M224.1,164v-9c0-2.5-2-4.5-4.5-4.5h-13.5c-2.5,0-4.5,2-4.5,4.5v27c0,2.5,2,4.5,4.5,4.5h18c2.5,0,4.5-2,4.5-4.5
	v-13.5C228.6,166,226.5,164,224.1,164z M210.6,159.5h4.5v4.5h-4.5V159.5z M219.6,177.5h-9V173h9V177.5z"/>
<path class="st0" d="M167.6,88l-45-22.5c-2.2-1.1-4.9-0.2-6,2c-0.3,0.6-0.5,1.3-0.5,2v45c0,2.5,2,4.5,4.5,4.5c0.7,0,1.4-0.2,2-0.5
	l45-22.5c2.2-1.1,3.1-3.8,2-6C169.2,89.1,168.4,88.4,167.6,88z"/>
<polygon class="st1" points="125.1,107.2 125.1,76.8 155.5,92 "/>
</svg>
